<?xml version="1.0" encoding="UTF-8" standalone="no"?>
<svg
   xmlns:dc="http://purl.org/dc/elements/1.1/"
   xmlns:cc="http://creativecommons.org/ns#"
   xmlns:rdf="http://www.w3.org/1999/02/22-rdf-syntax-ns#"
   xmlns:svg="http://www.w3.org/2000/svg"
   xmlns="http://www.w3.org/2000/svg"
   xmlns:sodipodi="http://sodipodi.sourceforge.net/DTD/sodipodi-0.dtd"
   xmlns:inkscape="http://www.inkscape.org/namespaces/inkscape"
   version="1.1"
   x="0px"
   y="0px"
   viewBox="0 0 297.6 297.6"
   style="enable-background:new 0 0 297.6 297.6;"
   xml:space="preserve"
   id="svg35"
   sodipodi:docname="desy_logo_3c_web.svg"
   inkscape:version="1.0.1 (1.0.1+r75)"><metadata
   id="metadata41"><rdf:RDF><cc:Work
       rdf:about=""><dc:format>image/svg+xml</dc:format><dc:type
         rdf:resource="http://purl.org/dc/dcmitype/StillImage" /></cc:Work></rdf:RDF></metadata><defs
   id="defs39" /><sodipodi:namedview
   pagecolor="#ffffff"
   bordercolor="#666666"
   borderopacity="1"
   objecttolerance="10"
   gridtolerance="10"
   guidetolerance="10"
   inkscape:pageopacity="0"
   inkscape:pageshadow="2"
   inkscape:window-width="1869"
   inkscape:window-height="1016"
   id="namedview37"
   showgrid="false"
   inkscape:zoom="1.4314516"
   inkscape:cx="274.04817"
   inkscape:cy="81.07273"
   inkscape:window-x="51"
   inkscape:window-y="27"
   inkscape:window-maximized="1"
   inkscape:current-layer="svg35" />
<style
   type="text/css"
   id="style2">
	.st0{fill:none;}
	.st1{fill:#009FDF;}
	.st2{fill:#F18F1F;}
	.st3{display:none;}
</style>
<g
   id="Seitenformat"
   style="fill:#ffffff;fill-opacity:1">
	<rect
   class="st0"
   width="297.6"
   height="297.6"
   id="rect4"
   style="fill:#ffffff;fill-opacity:1" />
</g>
<g
   id="Artwork">
	<g
   id="g29">
		<path
   class="st1"
   d="M 148.8,7.1 C 70.5,7.1 7.1,70.5 7.1,148.8 c 0,78.3 63.5,141.7 141.7,141.7 78.3,0 141.7,-63.5 141.7,-141.7 C 290.6,70.5 227.1,7.1 148.8,7.1 Z m 0,277.1 C 74,284.2 13.4,223.6 13.4,148.8 13.4,74 74.1,13.5 148.8,13.5 c 74.8,0 135.4,60.6 135.4,135.4 0,74.8 -60.6,135.3 -135.4,135.3 z"
   id="path7" />
		<path
   class="st1"
   d="m 222.8,190.8 c -5.4,0 -10.3,2 -14.1,5.3 L 193,182.7 c -1.3,-1.1 -3.3,-1 -4.5,0.4 -1.1,1.3 -1,3.3 0.4,4.5 l 15.5,13.2 c -2.3,3.5 -3.7,7.8 -3.6,12.3 0.1,12.2 10.1,22.1 22.4,22 12.2,-0.1 22.1,-10.1 22,-22.4 -0.2,-12.2 -10.2,-22 -22.4,-21.9 z"
   id="path9" />
		<path
   class="st1"
   d="m 145.6,90.1 v 22.1 c 0,1.8 1.4,3.2 3.2,3.2 1.8,0 3.2,-1.4 3.2,-3.2 V 90.1 c 15.6,-1.6 27.8,-14.8 27.8,-30.8 0,-17.1 -13.9,-31 -31,-31 -17.1,0 -31,13.9 -31,31 0.1,16 12.2,29.2 27.8,30.8 z"
   id="path11" />
		<path
   class="st1"
   d="m 191.2,115.9 c 0.7,0 1.5,-0.3 2.1,-0.8 l 26.3,-22.5 c 2.2,1.7 5,2.6 7.9,2.5 7,-0.2 12.5,-6 12.3,-13 -0.2,-7 -6,-12.5 -13,-12.3 -7,0.2 -12.5,6 -12.3,13 0,1.7 0.4,3.4 1.1,4.8 l -26.5,22.6 c -1.3,1.1 -1.5,3.1 -0.4,4.5 0.7,0.8 1.6,1.2 2.5,1.2 z"
   id="path13" />
		<polygon
   class="st1"
   points="217.9,124 212.2,142.4 212.1,142.4 206.5,124 193.6,124 206.2,154.1 206.2,173.6 217.8,173.6 217.8,154.1 230.4,124 "
   id="polygon15" />
		<path
   class="st1"
   d="m 186.3,151.8 c -1,-1.8 -2.4,-3.2 -4,-4.3 -1.6,-1.1 -3.3,-2 -5.1,-2.6 -1.8,-0.7 -3.5,-1.4 -5.1,-2.1 -1.6,-0.7 -2.9,-1.5 -4,-2.5 -1,-1 -1.6,-2.3 -1.6,-4.1 0,-3.6 1.6,-5.4 4.7,-5.4 1.7,0 2.9,0.6 3.5,1.7 0.6,1.1 1,2.8 1,5.2 H 187 v -1.2 c 0,-1.9 -0.3,-3.7 -0.8,-5.3 -0.6,-1.6 -1.5,-3.1 -2.7,-4.3 -1.3,-1.2 -2.9,-2.2 -4.9,-2.9 -2,-0.7 -4.5,-1 -7.4,-1 -3,0 -5.6,0.4 -7.6,1.2 -2.1,0.8 -3.7,1.8 -5,3.2 -1.3,1.3 -2.2,2.9 -2.8,4.6 -0.6,1.8 -0.8,3.6 -0.8,5.6 0,3.1 0.5,5.6 1.6,7.4 1,1.9 2.4,3.3 4,4.5 1.6,1.1 3.3,2 5.1,2.7 1.8,0.6 3.5,1.3 5.1,2 1.6,0.7 2.9,1.5 4,2.5 1,1 1.6,2.4 1.6,4.1 0,0.7 -0.1,1.4 -0.2,2.1 -0.2,0.7 -0.5,1.4 -0.9,1.9 -0.4,0.6 -1,1 -1.6,1.4 -0.7,0.3 -1.5,0.5 -2.5,0.5 -2,0 -3.4,-0.6 -4.1,-1.9 -0.7,-1.3 -1,-2.8 -1,-4.7 v -1.7 h -11.3 v 3.2 c 0,2.6 0.5,4.7 1.4,6.4 0.9,1.7 2.1,3 3.6,4 1.5,1 3.2,1.6 5.2,2 2,0.4 4,0.6 6.2,0.6 2.7,0 5.1,-0.3 7.2,-0.9 2.1,-0.6 3.9,-1.5 5.3,-2.8 1.5,-1.3 2.6,-2.9 3.3,-4.9 0.8,-2 1.1,-4.4 1.1,-7.2 -0.3,-2.9 -0.8,-5.3 -1.8,-7 z"
   id="path17" />
		<polygon
   class="st1"
   points="142.3,152.8 142.3,143.4 126.3,143.4 126.3,133.4 143.4,133.4 143.4,124 114.6,124 114.6,173.6 144.1,173.6 144.1,164.2 126.3,164.2 126.3,152.8 "
   id="polygon19" />
		<path
   class="st1"
   d="M 92.7,125.2 C 90.6,124.4 88.1,124 85.3,124 H 68 v 49.6 h 16.1 c 3.8,0 6.9,-0.5 9.2,-1.6 2.3,-1.1 4.1,-2.7 5.4,-4.9 1.3,-2.2 2.1,-4.9 2.5,-8.2 0.4,-3.3 0.6,-7.2 0.6,-11.7 0,-4.3 -0.3,-7.9 -0.9,-10.9 -0.6,-3 -1.6,-5.4 -3,-7.2 -1.4,-1.8 -3.1,-3.1 -5.2,-3.9 z m -3,31.7 c -0.3,2.2 -0.7,4 -1.3,5.2 -0.6,1.2 -1.3,2 -2.3,2.4 -0.9,0.4 -2.1,0.6 -3.4,0.6 h -3.1 v -32.4 h 3.3 c 1.5,0 2.8,0.2 3.7,0.7 0.9,0.5 1.7,1.3 2.2,2.4 0.5,1.2 0.8,2.7 1,4.7 0.2,2 0.2,4.5 0.2,7.5 0.1,3.7 0,6.7 -0.3,8.9 z"
   id="path21" />
		<path
   class="st1"
   d="m 74.6,107.1 c 5.4,0 10.3,-2 14.1,-5.3 l 15.6,13.3 c 1.3,1.1 3.3,1 4.5,-0.4 1.1,-1.3 1,-3.3 -0.4,-4.5 L 92.9,97.1 C 95.2,93.6 96.6,89.3 96.5,84.8 96.4,72.6 86.4,62.7 74.1,62.8 61.8,62.9 52,72.9 52.1,85.2 c 0.2,12.2 10.2,22 22.5,21.9 z"
   id="path23" />
		<path
   class="st1"
   d="m 106.7,182 c -0.7,0 -1.5,0.3 -2.1,0.8 l -26.3,22.5 c -2.2,-1.7 -5,-2.6 -7.9,-2.5 -7,0.2 -12.5,6 -12.3,13 0.2,7 6,12.5 13,12.3 7,-0.2 12.5,-6 12.3,-13 0,-1.7 -0.4,-3.4 -1.1,-4.8 l 26.5,-22.6 c 1.3,-1.1 1.5,-3.1 0.4,-4.5 -0.8,-0.8 -1.6,-1.2 -2.5,-1.2 z"
   id="path25" />
		<path
   class="st1"
   d="m 152,207.5 v -22.1 c 0,-1.8 -1.4,-3.2 -3.2,-3.2 -1.8,0 -3.2,1.4 -3.2,3.2 v 22.1 c -15.6,1.6 -27.8,14.8 -27.8,30.8 0,17.1 13.9,31 31,31 17.1,0 31,-13.9 31,-31 0,-16 -12.2,-29.2 -27.8,-30.8 z"
   id="path27" />
	</g>
	<path
   class="st2"
   d="m 232.6,172.5 c 1.2,1.2 2.6,1.8 4.3,1.8 1.7,0 3.1,-0.6 4.3,-1.8 1.2,-1.2 1.8,-2.6 1.8,-4.3 0,-1.7 -0.6,-3.1 -1.8,-4.3 -1.2,-1.2 -2.6,-1.8 -4.3,-1.8 -1.7,0 -3.1,0.6 -4.3,1.8 -1.2,1.2 -1.8,2.6 -1.8,4.3 0,1.7 0.6,3.2 1.8,4.3"
   id="path31" />
</g>
<g
   id="Ruler"
   class="st3">
</g>
</svg>
